<svg id="Femme_Page_2" data-name="Femme_Page 2" xmlns="http://www.w3.org/2000/svg" viewBox="0 0 677.02 890.39"><defs><style>.cls-1{fill:#bfe6d4;}.cls-2{fill:none;}.cls-2,.cls-4{stroke:#e49f58;}.cls-2,.cls-4,.cls-5{stroke-miterlimit:10;}.cls-3,.cls-5{fill:#e49f58;}.cls-4{fill:#fefefe;}.cls-5{stroke:#fff;}</style></defs><title>Femme_page2</title><path class="cls-1" d="M673,848.52c173.27,23.9-43.6,82.78-219.08,45.81-120.68-25.42-312.39,20.52-310.7-15.93,4-85.64,138.85-29.17,245.16-51.61C587.32,784.79,636.81,843.54,673,848.52Z" transform="translate(-143.18 -15.83)"/><line class="cls-2" x1="202.34" y1="103.34" x2="102.93" y2="103.11"/><path class="cls-2" d="M608.86,119S595.07,64.73,541,83.92c0,0,15.05-67.31-60.92-67.59-50.58-.18-62.07,60-62.07,60s-23-16.63-55.18-1.1C333.1,89.58,345.62,119,345.62,119Z" transform="translate(-143.18 -15.83)"/><line class="cls-2" x1="566.54" y1="103.37" x2="467.13" y2="103.14"/><path class="cls-3" d="M457.07,778.71,445.45,803s-55.52,4.66-59,9.33a18.43,18.43,0,0,0-3.25,10.52l64-14.83,13-11.32,3.73-13.5-5.37-6.33Z" transform="translate(-143.18 -15.83)"/><path class="cls-3" d="M578.74,650.43S539.86,626.31,520.06,629c-19.14,2.58-55.52,81-60.11,114.24S578.74,650.43,578.74,650.43Z" transform="translate(-143.18 -15.83)"/><path class="cls-4" d="M453.13,806.91c-11.82,3.15-61.47,4.81-67,13.47S368,838.39,454.66,855c0,0,20.13,5.3,23.2-5.27s7.38-38.38,15.46-48.78,21-32.07,21-32.07L472.9,750.73l-17.22,62.32" transform="translate(-143.18 -15.83)"/><path class="cls-3" d="M678.94,782.1s-23.84,9.32-41.1,9.77-70.65-31.72-87-66.21C543.38,709.88,678.94,782.1,678.94,782.1Z" transform="translate(-143.18 -15.83)"/><circle class="cls-2" cx="588.56" cy="464.49" r="48.84"/><path class="cls-4" d="M683.17,657.17c9.51-42.24,48.33-64.92,48.33-64.92" transform="translate(-143.18 -15.83)"/><path class="cls-4" d="M746.72,732.18s-4.94,44.84-29.27,52.77-65,14.28-111.58-14.28S546,713.92,546,713.92,529,779.66,501.29,791c-7,2.85-26.13-.76-34.34-5.58-22.86-13.4,2.31-61.65,11.53-88.49,12.38-36,35.27-60.26,50-60.26C556.27,636.65,746.72,732.18,746.72,732.18Z" transform="translate(-143.18 -15.83)"/><line class="cls-2" x1="417.69" y1="603.88" x2="438.88" y2="640.3"/><path class="cls-3" d="M689.25,449.06a10.49,10.49,0,0,0-1,9.79c2.09,5.18,6.49,12.23,14.73,10.71,12.74-2.35,27.46-9.2,37.25.21a25.2,25.2,0,0,0,4.05,3.2,10.59,10.59,0,0,0,16-6.95l3.52-17.56a10.6,10.6,0,0,0-5.6-11.53l-10-5.09a10.63,10.63,0,0,0-2.25-.84c-4.49-1.11-20.14-4.53-29.37-.64C707.12,434.33,695.6,439.69,689.25,449.06Z" transform="translate(-143.18 -15.83)"/><polygon class="cls-3" points="339.17 535.48 375.52 468.83 429.8 539.01 457.32 579.66 420.71 623.21 339.17 535.48"/><path class="cls-4" d="M597.72,597.51s-14.62-40.65-23.09-41.15-5.94,5.55-4.43,13.89-13.06-18.18-13.06-18.18-11.17-29.54-15-30-10.6-3-8.08,11.61,29.3,75,40.53,79,14.26,2.78,19.56-4.29S597.72,597.51,597.72,597.51Z" transform="translate(-143.18 -15.83)"/><path class="cls-4" d="M458.78,814.61s-2.35,9.39,10.28,9.22,17.11-7.21,17.11-7.21" transform="translate(-143.18 -15.83)"/><path class="cls-4" d="M447.2,809.3s4.75-13.45,12.46-10.63c12.26,4.49,9.92,14-3.15,17.1" transform="translate(-143.18 -15.83)"/><path class="cls-4" d="M389.66,829.89s60.17,17.19,70.78,18.26c12.83,1.29,18-.67,18-.67" transform="translate(-143.18 -15.83)"/><path class="cls-2" d="M721.43,541.12s-48.2,36.28-60.16,97.92,7,74.84,77.44,92.11,33.22-190,33.22-190Z" transform="translate(-143.18 -15.83)"/><path class="cls-5" d="M764.89,415.74s2-14.41,10.73-16.85c14.94-4.18,34.52,1.67,33.46,24-.64,13.48-13.64,16.37-13.64,16.37s12.86,13.36,15.67,24.26c3.16,12.27.16,39.24-16.59,46.73-7.85,3.51,4.36,11.14,7.64,30.83,3.85,23.11-16,73.37-33.6,75.46s-30.23-21.35-34.78-31.5c-6.9-15.4,2.4-42.89,20.66-52.94,5.43-3-18.25-14.79-16.69-30.12,1.31-12.93,10.38-21,12.93-23.06a4.68,4.68,0,0,0,1.46-5.41c-1.28-3.17-2.34-8.48,0-15.8,5-16,18.3-15.89,18.3-15.89s10.12,0,10.12-8.9C780.51,426.3,764.89,415.74,764.89,415.74Z" transform="translate(-143.18 -15.83)"/><path class="cls-4" d="M767,613.32s-39.13,92-67.69,101.53-34.07-7.4-56.43-30.67-64.14-64-64.14-64l23.8-24.33h2.64s58.7,35.43,72.45,65" transform="translate(-143.18 -15.83)"/><line class="cls-2" x1="358.11" y1="775.15" x2="677.01" y2="777.74"/><line class="cls-4" x1="370.17" y1="842.89" x2="227.18" y2="841.64"/><path class="cls-4" d="M462,781.06" transform="translate(-143.18 -15.83)"/><path class="cls-2" d="M734.26,529.09s-3.34,11.17-10.91,12" transform="translate(-143.18 -15.83)"/><ellipse class="cls-2" cx="766.17" cy="428.56" rx="11.1" ry="18.51" transform="matrix(0.5, -0.87, 0.87, 0.5, -131.24, 861.98)"/></svg>