<svg id="Femme_1" data-name="Femme 1" xmlns="http://www.w3.org/2000/svg" viewBox="0 0 948.71 518.37"><defs><style>.cls-1,.cls-4{fill:none;}.cls-1,.cls-2,.cls-4,.cls-6{stroke:#e49f58;stroke-miterlimit:10;}.cls-2{fill:#fafafa;}.cls-3{fill:#bfe6d4;}.cls-4{stroke-width:2px;}.cls-5{fill:#e49f58;}.cls-6{fill:#f9f9f9;}</style></defs><title>Femme_page1</title><circle class="cls-1" cx="490.89" cy="91.21" r="50.61"/><ellipse class="cls-2" cx="470.96" cy="21.31" rx="26.32" ry="20.81"/><path class="cls-2" d="M572.37,299.41s-12.25-3.26-38.42.64-53.59,41.21-53.59,41.21-8.31-50.92,35.93-62.11S572.37,299.41,572.37,299.41Z" transform="translate(-39.14 -236.66)"/><path class="cls-1" d="M507.8,403.11,519,379.45c18.1,5.11,35.05-5.2,30.8-2.78s12.09,27.65,12.09,27.65-58.86,10-54-1.22" transform="translate(-39.14 -236.66)"/><path class="cls-3" d="M946.23,594.1C930.3,723.47,872.38,810.61,530.41,713.62,295.25,646.93,23.88,611.86,39.8,482.49s250.9-18.2,468-64.32C834.88,348.68,962.16,464.72,946.23,594.1Z" transform="translate(-39.14 -236.66)"/><line class="cls-4" x1="129.19" y1="406.6" x2="948.7" y2="410.67"/><path class="cls-2" d="M490.73,411.68l-29.36.68a25.08,25.08,0,0,0-18.06,8.11c-1.89,2.09-3.29,4.39-3.29,6.61,0,6.91-4.05,196.15,4.05,203.06s71.58,15.19,71.58,15.19H656.12l55.38,1.38s-56.16-217.5-96.82-236.23c-19-8.75-44.19-3.44-44.19-3.44s-52.76,5.36-61.75,4.88C498.93,411.4,490.73,411.68,490.73,411.68Z" transform="translate(-39.14 -236.66)"/><path class="cls-2" d="M492.58,488.45l5.55,83.13a33.25,33.25,0,0,0,24.37,29.85l52.75,14.49" transform="translate(-39.14 -236.66)"/><line class="cls-2" x1="561.95" y1="234.55" x2="591.45" y2="297.51"/><path class="cls-2" d="M819.16,610.29s-4.24,34.22,30.55,34.31c25.87.06,29.45-17.75,29.76-28a40,40,0,0,0-.26-6.31Z" transform="translate(-39.14 -236.66)"/><path class="cls-1" d="M879.49,617.29s9.66-2.28,9.66,6.85c0,6-13.77,8.47-13.77,8.47" transform="translate(-39.14 -236.66)"/><path class="cls-2" d="M852.09,584c27.55-12.45,7.05-37.81,2.41-43.74s-25.91-31.94-.13-60.74c15.19-17,41.21-39.37,16.4-61.26-26-22.93-49.58-41.58-26.54-78.05,22.92-36.29,80.68-23.9,91.73,16.66,10.64,39.05-1.31,80.67-24.26,110.59s-29,45.74-7.68,66.68c17.83,17.51-4.17,52.84-32.64,61.06-13,3.76-9.4,15.13-9.4,15.13H839.82S832.66,592.75,852.09,584Z" transform="translate(-39.14 -236.66)"/><polygon class="cls-5" points="582.02 297.44 745.84 298.56 722.48 409.99 551.18 408.67 582.02 297.44"/><path class="cls-5" d="M511,400.6s50.91,0,50.91-2.68,13.33,7.77,2.68,10.72c-8.91,2.46-49.41,6.27-64.3,5.36-3-.18-9.45.84-8-2.68C497.57,397.92,500.25,400.6,511,400.6Z" transform="translate(-39.14 -236.66)"/><polyline class="cls-2" points="185.75 405.26 165.88 313.75 261.49 312.85 246 404.64"/><path class="cls-1" d="M243.37,550.32S285,512,279.83,487.67,227.29,393,239,362.28s12.32-36.47,12.32-36.47" transform="translate(-39.14 -236.66)"/><circle class="cls-6" cx="215.26" cy="81.68" r="11.03"/><path class="cls-2" d="M238.07,360.26s3.61-13.78-7-24.43S187.93,298.92,238.07,360.26Z" transform="translate(-39.14 -236.66)"/><path class="cls-2" d="M237.37,378.1s9.87-19.29,28-15.36S245,363.77,237.37,378.1Z" transform="translate(-39.14 -236.66)"/><path class="cls-2" d="M242.22,404.52s-11.33-17.12-24.78-18.24S196.39,384,242.22,404.52Z" transform="translate(-39.14 -236.66)"/><path class="cls-2" d="M248.42,419.31s-.58-19.58,22.06-17.9S248.57,406.93,248.42,419.31Z" transform="translate(-39.14 -236.66)"/><path class="cls-2" d="M260.77,448.7s-12.37-12-23.64-12S231.42,447.23,260.77,448.7Z" transform="translate(-39.14 -236.66)"/><path class="cls-2" d="M262.66,443.56s.25-14.68,14.24-14.12-14.24,17.94-14.24,17.94Z" transform="translate(-39.14 -236.66)"/><path class="cls-2" d="M279.83,490.35s-9-25.68-26-25.06S252.23,464,279.83,490.35Z" transform="translate(-39.14 -236.66)"/><path class="cls-2" d="M279.83,499.57s-6.49-8,21.41-21.75,30.37,4.83,30.37,4.83S287.61,480.68,279.83,499.57Z" transform="translate(-39.14 -236.66)"/></svg>