<svg id="Homme_Page_2" data-name="Homme Page 2" xmlns="http://www.w3.org/2000/svg" viewBox="0 0 493.24 906.03"><defs><style>.cls-1{fill:#e49f58;}.cls-2,.cls-6{fill:none;}.cls-2,.cls-3,.cls-4,.cls-5,.cls-6{stroke:#e49f58;stroke-miterlimit:10;}.cls-3{fill:#fefefd;}.cls-4{fill:#fbfafa;}.cls-5{fill:#fff;}.cls-6{stroke-width:2px;}.cls-7{fill:#bfe6d4;}</style></defs><title>Homme_Page2</title><circle class="cls-1" cx="300.42" cy="14.75" r="14.75"/><path class="cls-2" d="M472.3,440a15.64,15.64,0,0,1-3.43-3.09c-10.14-17.38-4.34-166.4,41.48-176.18,49.26-10.52,103.5-1.11,110.15,3.87s19.37,22.14,19.37,37.64,15.44,84.94,2.19,116.13c-10.08,23.72,9.71,56.41-2.47,58.62s-131,6.62-131.79-2.7-4.09-21.5-1.88-54.71.55-51.48,2.77-73.06,3.87-18.27,3.87-18.27" transform="translate(-427.2 -37.83)"/><path class="cls-2" d="M637.1,419.85s-12.73,7.75-26,9.23c-11,1.22-28.62-44.39-33.76-60.42a5.51,5.51,0,0,1,3.78-7L603.2,356a4.45,4.45,0,0,1,4.79,1.82l16.15,24" transform="translate(-427.2 -37.83)"/><path class="cls-2" d="M613,363.72c2.12,3.95-2.07-28.58-3.6-36.4" transform="translate(-427.2 -37.83)"/><path class="cls-1" d="M562.42,331l5.93-40.49c.52-3.53,3.55-6.14,6.76-5.83l19.42,1.89c3.15.31,5.56,2.52,5,6.48L594,331.69c-.56,5.81-3.62,8.47-6.87,8.15l-19.87-2C564.06,337.55,561.91,334.48,562.42,331Z" transform="translate(-427.2 -37.83)"/><path class="cls-2" d="M592.23,258.32c-10-12.89,3.22-25.22-7.59-19.56s-28-11.78-28-4.75-10,19.69-10,19.69-4,3.31,1.85,3S592.23,258.32,592.23,258.32Z" transform="translate(-427.2 -37.83)"/><circle class="cls-3" cx="576.57" cy="207.71" r="32.69" transform="translate(-148.14 705.67) rotate(-80.77)"/><path class="cls-4" d="M591.68,627.92,603,625a21.57,21.57,0,0,0,17.67-21c0-7-1.61-16.15-6.63-28q-22.37-52.75-22.35-52.75V804.61H520.5s-10.84-257.9-10.84-271.09-4.07-42.5-4.07-42.5l2.71-13.19H639.79S691.31,576,690,599.46,658.77,668.33,615.39,683L593,690.29" transform="translate(-427.2 -37.83)"/><polyline class="cls-2" points="86.49 606.1 68.95 609.59 71.76 667.06 89.09 665.64"/><line class="cls-2" x1="436.36" y1="68.84" x2="493.24" y2="68.71"/><path class="cls-2" d="M712.87,106.59s7.89-31.08,38.81-20.1c0,0-8.61-38.52,34.86-38.67,28.94-.1,35.52,34.32,35.52,34.32s13.16-9.51,31.57-.63c17,8.22,9.87,25.08,9.87,25.08Z" transform="translate(-427.2 -37.83)"/><line class="cls-2" x1="227.96" y1="68.85" x2="284.84" y2="68.72"/><path class="cls-1" d="M581.12,161.36c42.48,6.9,34.3,48.3,25.72,34-6-10-6.93,5.44-49.86-9.47-11.05-3.84-1.29,37.2-10.63,34.32S526.66,152.51,581.12,161.36Z" transform="translate(-427.2 -37.83)"/><path class="cls-1" d="M468.82,438.55l29.15.27s-9.23,11.41-8.36,15.44-21.32.77-21.32.77S472.74,442.24,468.82,438.55Z" transform="translate(-427.2 -37.83)"/><path class="cls-1" d="M577.64,363.14l28.6-7.92s-11.33-6.3-11.35-9.62-20.71,5.1-20.71,5.1S580.62,359.26,577.64,363.14Z" transform="translate(-427.2 -37.83)"/><path class="cls-5" d="M574.19,339.88s-4.3-17.5.58-19.64,7.74-.71,9.17,1.25,10,23.37,10,23.37l-16.88,4.72s-12.23-9.69-11-11.65S569.26,334.88,574.19,339.88Z" transform="translate(-427.2 -37.83)"/><line class="cls-2" x1="123.92" y1="766.06" x2="123.45" y2="789.55"/><polygon class="cls-2" points="69.34 628.91 45.15 631.44 48.1 646.31 49.91 655.4 72.05 654.7 69.34 628.91"/><line class="cls-2" x1="70.98" y1="644.51" x2="47.57" y2="646.49"/><path class="cls-2" d="M476.39,693.25s-18.25,2.78-18,17.06c.23,12.18-14.54,52.33-17.19,49.08s-3.69-71.73-3.91-88.88a4,4,0,0,1,4-4c4.68,0,12.23.78,16.2,5.11a4,4,0,0,0,3.39,1.32L469,672a4,4,0,0,1,4.33,3.15l3.77,18" transform="translate(-427.2 -37.83)"/><path class="cls-6" d="M505.59,425.09s-7.31,15.11-11.07,15.11" transform="translate(-427.2 -37.83)"/><path class="cls-5" d="M471.42,456.28s-2.91,14.71-2.58,20.11c.77,12.51,17.88,13.82,17.52,5.49s-2.31-12.33.59-8.7,9.58,6.06,4.78-7.81c-2.81-8.12-4.21-9.43-4.21-9.43l-15.43-1.14Z" transform="translate(-427.2 -37.83)"/><path class="cls-7" d="M845.9,906.55c-4,32.88-28.42,53.84-187.73,20.28C548.61,903.74,423.25,887.89,427.3,855s114.63,1.64,213.06-4.76C788.64,840.61,849.95,873.67,845.9,906.55Z" transform="translate(-427.2 -37.83)"/><polygon class="cls-2" points="108.24 766.06 108.24 790.39 123.33 789 132.57 788.15 134.17 766.06 108.24 766.06"/><path class="cls-2" d="M559.72,826.69s.87,18.44,15.09,19.65c12.14,1,50.26,12,47,22.21-1.26,4-71.72-3.81-88.8-5.37a4,4,0,0,1-3.61-4.43c.5-4.65,2-12.08,6.77-15.58a4,4,0,0,0,1.66-3.24v-8.12a4,4,0,0,1,3.59-4L559.77,826" transform="translate(-427.2 -37.83)"/></svg>